<mxfile host="Electron" agent="Mozilla/5.0 (Windows NT 10.0; Win64; x64) AppleWebKit/537.36 (KHTML, like Gecko) draw.io/24.7.17 Chrome/128.0.6613.36 Electron/32.0.1 Safari/537.36" version="24.7.17" pages="8">
  <diagram id="26QEeZrX69vIbiT__6Te" name="UTAMA">
    <mxGraphModel dx="3543" dy="887" grid="1" gridSize="10" guides="1" tooltips="1" connect="1" arrows="1" fold="1" page="1" pageScale="1" pageWidth="850" pageHeight="1100" math="0" shadow="0">
      <root>
        <mxCell id="0" />
        <mxCell id="1" parent="0" />
        <mxCell id="IL1phmKc3OUUYU9UXJBj-3" value="" style="edgeStyle=orthogonalEdgeStyle;rounded=0;orthogonalLoop=1;jettySize=auto;html=1;" parent="1" source="IL1phmKc3OUUYU9UXJBj-1" target="IL1phmKc3OUUYU9UXJBj-2" edge="1">
          <mxGeometry relative="1" as="geometry" />
        </mxCell>
        <mxCell id="IL1phmKc3OUUYU9UXJBj-1" value="START" style="strokeWidth=2;html=1;shape=mxgraph.flowchart.start_1;whiteSpace=wrap;" parent="1" vertex="1">
          <mxGeometry x="370" y="290" width="100" height="60" as="geometry" />
        </mxCell>
        <mxCell id="IL1phmKc3OUUYU9UXJBj-5" value="" style="edgeStyle=orthogonalEdgeStyle;rounded=0;orthogonalLoop=1;jettySize=auto;html=1;entryX=0.5;entryY=0;entryDx=0;entryDy=0;entryPerimeter=0;" parent="1" source="IL1phmKc3OUUYU9UXJBj-2" target="XxElJnlrTqwfch94WFFh-1" edge="1">
          <mxGeometry relative="1" as="geometry">
            <mxPoint x="420" y="550" as="targetPoint" />
          </mxGeometry>
        </mxCell>
        <mxCell id="IL1phmKc3OUUYU9UXJBj-2" value="Pilihan awal" style="shape=parallelogram;html=1;strokeWidth=2;perimeter=parallelogramPerimeter;whiteSpace=wrap;rounded=1;arcSize=12;size=0.23;" parent="1" vertex="1">
          <mxGeometry x="370" y="410" width="100" height="60" as="geometry" />
        </mxCell>
        <mxCell id="XxElJnlrTqwfch94WFFh-4" value="" style="edgeStyle=orthogonalEdgeStyle;rounded=0;orthogonalLoop=1;jettySize=auto;html=1;entryX=1;entryY=0.5;entryDx=0;entryDy=0;" parent="1" source="XxElJnlrTqwfch94WFFh-1" target="XxElJnlrTqwfch94WFFh-5" edge="1">
          <mxGeometry relative="1" as="geometry">
            <mxPoint x="300" y="580" as="targetPoint" />
          </mxGeometry>
        </mxCell>
        <mxCell id="XxElJnlrTqwfch94WFFh-6" value="True" style="edgeLabel;html=1;align=center;verticalAlign=middle;resizable=0;points=[];" parent="XxElJnlrTqwfch94WFFh-4" vertex="1" connectable="0">
          <mxGeometry x="-0.1029" y="5" relative="1" as="geometry">
            <mxPoint y="-5" as="offset" />
          </mxGeometry>
        </mxCell>
        <mxCell id="XxElJnlrTqwfch94WFFh-1" value="Register?" style="strokeWidth=2;html=1;shape=mxgraph.flowchart.decision;whiteSpace=wrap;" parent="1" vertex="1">
          <mxGeometry x="370" y="530" width="100" height="100" as="geometry" />
        </mxCell>
        <mxCell id="XxElJnlrTqwfch94WFFh-8" style="edgeStyle=orthogonalEdgeStyle;rounded=0;orthogonalLoop=1;jettySize=auto;html=1;entryX=0;entryY=0.5;entryDx=0;entryDy=0;" parent="1" source="XxElJnlrTqwfch94WFFh-5" target="IL1phmKc3OUUYU9UXJBj-2" edge="1">
          <mxGeometry relative="1" as="geometry">
            <Array as="points">
              <mxPoint x="180" y="580" />
              <mxPoint x="180" y="440" />
            </Array>
          </mxGeometry>
        </mxCell>
        <mxCell id="4S5R090-bwrtNlhZvarS-1" value="" style="edgeStyle=orthogonalEdgeStyle;rounded=0;orthogonalLoop=1;jettySize=auto;html=1;entryX=0.5;entryY=0;entryDx=0;entryDy=0;" parent="1" source="XxElJnlrTqwfch94WFFh-5" target="4S5R090-bwrtNlhZvarS-7" edge="1">
          <mxGeometry relative="1" as="geometry">
            <mxPoint x="250" y="680" as="targetPoint" />
          </mxGeometry>
        </mxCell>
        <mxCell id="4S5R090-bwrtNlhZvarS-2" value="False" style="edgeLabel;html=1;align=center;verticalAlign=middle;resizable=0;points=[];" parent="4S5R090-bwrtNlhZvarS-1" vertex="1" connectable="0">
          <mxGeometry y="-2" relative="1" as="geometry">
            <mxPoint as="offset" />
          </mxGeometry>
        </mxCell>
        <mxCell id="XxElJnlrTqwfch94WFFh-5" value="" style="verticalLabelPosition=bottom;verticalAlign=top;html=1;shape=process;whiteSpace=wrap;rounded=1;size=0.14;arcSize=6;" parent="1" vertex="1">
          <mxGeometry x="200" y="550" width="100" height="60" as="geometry" />
        </mxCell>
        <mxCell id="XxElJnlrTqwfch94WFFh-7" value="Register" style="text;html=1;align=center;verticalAlign=middle;resizable=0;points=[];autosize=1;strokeColor=none;fillColor=none;" parent="1" vertex="1">
          <mxGeometry x="215" y="565" width="70" height="30" as="geometry" />
        </mxCell>
        <mxCell id="4S5R090-bwrtNlhZvarS-9" value="" style="edgeStyle=orthogonalEdgeStyle;rounded=0;orthogonalLoop=1;jettySize=auto;html=1;" parent="1" source="4S5R090-bwrtNlhZvarS-7" target="4S5R090-bwrtNlhZvarS-8" edge="1">
          <mxGeometry relative="1" as="geometry" />
        </mxCell>
        <mxCell id="4S5R090-bwrtNlhZvarS-13" value="" style="edgeStyle=orthogonalEdgeStyle;rounded=0;orthogonalLoop=1;jettySize=auto;html=1;" parent="1" source="4S5R090-bwrtNlhZvarS-7" target="4S5R090-bwrtNlhZvarS-12" edge="1">
          <mxGeometry relative="1" as="geometry" />
        </mxCell>
        <mxCell id="4S5R090-bwrtNlhZvarS-16" value="False" style="edgeLabel;html=1;align=center;verticalAlign=middle;resizable=0;points=[];" parent="4S5R090-bwrtNlhZvarS-13" vertex="1" connectable="0">
          <mxGeometry x="-0.36" y="-2" relative="1" as="geometry">
            <mxPoint as="offset" />
          </mxGeometry>
        </mxCell>
        <mxCell id="4S5R090-bwrtNlhZvarS-7" value="Login?" style="rhombus;whiteSpace=wrap;html=1;" parent="1" vertex="1">
          <mxGeometry x="210" y="670" width="80" height="80" as="geometry" />
        </mxCell>
        <mxCell id="4S5R090-bwrtNlhZvarS-8" value="" style="verticalLabelPosition=bottom;verticalAlign=top;html=1;shape=process;whiteSpace=wrap;rounded=1;size=0.14;arcSize=6;" parent="1" vertex="1">
          <mxGeometry x="80" y="680" width="100" height="60" as="geometry" />
        </mxCell>
        <mxCell id="4S5R090-bwrtNlhZvarS-15" value="" style="edgeStyle=orthogonalEdgeStyle;rounded=0;orthogonalLoop=1;jettySize=auto;html=1;" parent="1" target="4S5R090-bwrtNlhZvarS-14" edge="1">
          <mxGeometry relative="1" as="geometry">
            <mxPoint x="129" y="740" as="sourcePoint" />
          </mxGeometry>
        </mxCell>
        <mxCell id="Yj-vSeAOm31KCTu0Xsmr-1" value="True" style="edgeLabel;html=1;align=center;verticalAlign=middle;resizable=0;points=[];" parent="4S5R090-bwrtNlhZvarS-15" vertex="1" connectable="0">
          <mxGeometry x="0.1345" y="-3" relative="1" as="geometry">
            <mxPoint as="offset" />
          </mxGeometry>
        </mxCell>
        <mxCell id="4S5R090-bwrtNlhZvarS-10" value="Login" style="text;html=1;align=center;verticalAlign=middle;resizable=0;points=[];autosize=1;strokeColor=none;fillColor=none;" parent="1" vertex="1">
          <mxGeometry x="105" y="695" width="50" height="30" as="geometry" />
        </mxCell>
        <mxCell id="4S5R090-bwrtNlhZvarS-12" value="Keluar" style="rhombus;whiteSpace=wrap;html=1;" parent="1" vertex="1">
          <mxGeometry x="210" y="790" width="80" height="80" as="geometry" />
        </mxCell>
        <mxCell id="_iMbOhREU7cKjliRstgV-2" value="" style="edgeStyle=orthogonalEdgeStyle;rounded=0;orthogonalLoop=1;jettySize=auto;html=1;entryX=0.5;entryY=0;entryDx=0;entryDy=0;" parent="1" source="4S5R090-bwrtNlhZvarS-14" target="Ol5AXbQPxSO3nmrqW-n--1" edge="1">
          <mxGeometry relative="1" as="geometry">
            <mxPoint x="120" y="908" as="targetPoint" />
          </mxGeometry>
        </mxCell>
        <mxCell id="Yj-vSeAOm31KCTu0Xsmr-2" value="True" style="edgeLabel;html=1;align=center;verticalAlign=middle;resizable=0;points=[];" parent="_iMbOhREU7cKjliRstgV-2" vertex="1" connectable="0">
          <mxGeometry x="-0.11" y="-3" relative="1" as="geometry">
            <mxPoint x="3" as="offset" />
          </mxGeometry>
        </mxCell>
        <mxCell id="Ol5AXbQPxSO3nmrqW-n--5" value="" style="edgeStyle=orthogonalEdgeStyle;rounded=0;orthogonalLoop=1;jettySize=auto;html=1;" parent="1" source="4S5R090-bwrtNlhZvarS-14" target="Ol5AXbQPxSO3nmrqW-n--4" edge="1">
          <mxGeometry relative="1" as="geometry" />
        </mxCell>
        <mxCell id="Yj-vSeAOm31KCTu0Xsmr-3" value="False" style="edgeLabel;html=1;align=center;verticalAlign=middle;resizable=0;points=[];" parent="Ol5AXbQPxSO3nmrqW-n--5" vertex="1" connectable="0">
          <mxGeometry x="-0.0248" y="1" relative="1" as="geometry">
            <mxPoint x="122" y="-1" as="offset" />
          </mxGeometry>
        </mxCell>
        <mxCell id="4S5R090-bwrtNlhZvarS-14" value="Akun admin?" style="rhombus;whiteSpace=wrap;html=1;" parent="1" vertex="1">
          <mxGeometry x="90" y="800" width="80" height="80" as="geometry" />
        </mxCell>
        <mxCell id="OENtlaoTmzw9U8hLZUp1-2" value="" style="edgeStyle=orthogonalEdgeStyle;rounded=0;orthogonalLoop=1;jettySize=auto;html=1;" parent="1" source="Ol5AXbQPxSO3nmrqW-n--1" target="OENtlaoTmzw9U8hLZUp1-1" edge="1">
          <mxGeometry relative="1" as="geometry" />
        </mxCell>
        <mxCell id="Ol5AXbQPxSO3nmrqW-n--1" value="Pilihan admin" style="shape=parallelogram;html=1;strokeWidth=2;perimeter=parallelogramPerimeter;whiteSpace=wrap;rounded=1;arcSize=12;size=0.23;" parent="1" vertex="1">
          <mxGeometry x="80" y="920" width="100" height="60" as="geometry" />
        </mxCell>
        <mxCell id="Ol5AXbQPxSO3nmrqW-n--3" value="" style="edgeStyle=none;orthogonalLoop=1;jettySize=auto;html=1;rounded=0;" parent="1" edge="1">
          <mxGeometry width="100" relative="1" as="geometry">
            <mxPoint x="70" y="930" as="sourcePoint" />
            <mxPoint x="120" y="930" as="targetPoint" />
            <Array as="points" />
          </mxGeometry>
        </mxCell>
        <mxCell id="SnPUfPCR4jyvn7PE34Hb-2" value="" style="edgeStyle=orthogonalEdgeStyle;rounded=0;orthogonalLoop=1;jettySize=auto;html=1;" parent="1" source="Ol5AXbQPxSO3nmrqW-n--4" target="SnPUfPCR4jyvn7PE34Hb-1" edge="1">
          <mxGeometry relative="1" as="geometry" />
        </mxCell>
        <mxCell id="SnPUfPCR4jyvn7PE34Hb-3" value="True" style="edgeLabel;html=1;align=center;verticalAlign=middle;resizable=0;points=[];" parent="SnPUfPCR4jyvn7PE34Hb-2" vertex="1" connectable="0">
          <mxGeometry x="0.1886" relative="1" as="geometry">
            <mxPoint y="-12" as="offset" />
          </mxGeometry>
        </mxCell>
        <mxCell id="Ol5AXbQPxSO3nmrqW-n--4" value="Akun user" style="rhombus;whiteSpace=wrap;html=1;" parent="1" vertex="1">
          <mxGeometry x="-465" y="800" width="80" height="80" as="geometry" />
        </mxCell>
        <mxCell id="LlNKkPpoZw3NCBhHh1k7-2" value="" style="edgeStyle=orthogonalEdgeStyle;rounded=0;orthogonalLoop=1;jettySize=auto;html=1;entryX=0.5;entryY=0;entryDx=0;entryDy=0;" parent="1" source="OENtlaoTmzw9U8hLZUp1-1" target="LlNKkPpoZw3NCBhHh1k7-3" edge="1">
          <mxGeometry relative="1" as="geometry">
            <mxPoint x="130" y="1220" as="targetPoint" />
          </mxGeometry>
        </mxCell>
        <mxCell id="LlNKkPpoZw3NCBhHh1k7-5" value="True" style="edgeLabel;html=1;align=center;verticalAlign=middle;resizable=0;points=[];" parent="LlNKkPpoZw3NCBhHh1k7-2" vertex="1" connectable="0">
          <mxGeometry x="-0.1" y="2" relative="1" as="geometry">
            <mxPoint x="-4" y="1" as="offset" />
          </mxGeometry>
        </mxCell>
        <mxCell id="lwP8fLJAZRcOApJ7ps1U-2" value="" style="edgeStyle=orthogonalEdgeStyle;rounded=0;orthogonalLoop=1;jettySize=auto;html=1;" parent="1" source="OENtlaoTmzw9U8hLZUp1-1" target="lwP8fLJAZRcOApJ7ps1U-1" edge="1">
          <mxGeometry relative="1" as="geometry" />
        </mxCell>
        <mxCell id="xKdxJ4ueiBNfUoAXIZeR-4" value="False" style="edgeLabel;html=1;align=center;verticalAlign=middle;resizable=0;points=[];" parent="lwP8fLJAZRcOApJ7ps1U-2" vertex="1" connectable="0">
          <mxGeometry x="-0.0889" y="-3" relative="1" as="geometry">
            <mxPoint y="-4" as="offset" />
          </mxGeometry>
        </mxCell>
        <mxCell id="OENtlaoTmzw9U8hLZUp1-1" value="Tambah data" style="strokeWidth=2;html=1;shape=mxgraph.flowchart.decision;whiteSpace=wrap;" parent="1" vertex="1">
          <mxGeometry x="80" y="1020" width="100" height="100" as="geometry" />
        </mxCell>
        <mxCell id="LlNKkPpoZw3NCBhHh1k7-3" value="" style="verticalLabelPosition=bottom;verticalAlign=top;html=1;shape=process;whiteSpace=wrap;rounded=1;size=0.14;arcSize=6;" parent="1" vertex="1">
          <mxGeometry x="60" y="1180" width="140" height="60" as="geometry" />
        </mxCell>
        <mxCell id="oezpbbOGGenALwVOjRUv-10" style="edgeStyle=orthogonalEdgeStyle;rounded=0;orthogonalLoop=1;jettySize=auto;html=1;entryX=0;entryY=0.5;entryDx=0;entryDy=0;exitX=0.5;exitY=1;exitDx=0;exitDy=0;" parent="1" source="LlNKkPpoZw3NCBhHh1k7-3" target="Ol5AXbQPxSO3nmrqW-n--1" edge="1">
          <mxGeometry relative="1" as="geometry">
            <mxPoint x="60" y="1210" as="sourcePoint" />
            <Array as="points">
              <mxPoint x="130" y="1280" />
              <mxPoint x="10" y="1280" />
              <mxPoint x="10" y="950" />
            </Array>
          </mxGeometry>
        </mxCell>
        <mxCell id="LlNKkPpoZw3NCBhHh1k7-4" value="Tambah data" style="text;html=1;align=center;verticalAlign=middle;resizable=0;points=[];autosize=1;strokeColor=none;fillColor=none;" parent="1" vertex="1">
          <mxGeometry x="84" y="1195" width="90" height="30" as="geometry" />
        </mxCell>
        <mxCell id="6GOM7Ha0-x-E4gUQbuxZ-3" value="" style="edgeStyle=orthogonalEdgeStyle;rounded=0;orthogonalLoop=1;jettySize=auto;html=1;" parent="1" source="lwP8fLJAZRcOApJ7ps1U-1" target="6GOM7Ha0-x-E4gUQbuxZ-2" edge="1">
          <mxGeometry relative="1" as="geometry" />
        </mxCell>
        <mxCell id="hh0KTQaMWghcd9gIspm0-19" value="True" style="edgeLabel;html=1;align=center;verticalAlign=middle;resizable=0;points=[];" parent="6GOM7Ha0-x-E4gUQbuxZ-3" vertex="1" connectable="0">
          <mxGeometry x="-0.0963" y="-1" relative="1" as="geometry">
            <mxPoint as="offset" />
          </mxGeometry>
        </mxCell>
        <mxCell id="6GOM7Ha0-x-E4gUQbuxZ-6" value="" style="edgeStyle=orthogonalEdgeStyle;rounded=0;orthogonalLoop=1;jettySize=auto;html=1;" parent="1" source="lwP8fLJAZRcOApJ7ps1U-1" target="6GOM7Ha0-x-E4gUQbuxZ-5" edge="1">
          <mxGeometry relative="1" as="geometry" />
        </mxCell>
        <mxCell id="xKdxJ4ueiBNfUoAXIZeR-5" value="False" style="edgeLabel;html=1;align=center;verticalAlign=middle;resizable=0;points=[];" parent="6GOM7Ha0-x-E4gUQbuxZ-6" vertex="1" connectable="0">
          <mxGeometry x="-0.125" y="-2" relative="1" as="geometry">
            <mxPoint x="1" y="-2" as="offset" />
          </mxGeometry>
        </mxCell>
        <mxCell id="lwP8fLJAZRcOApJ7ps1U-1" value="Tampilkan data" style="strokeWidth=2;html=1;shape=mxgraph.flowchart.decision;whiteSpace=wrap;" parent="1" vertex="1">
          <mxGeometry x="270" y="1020" width="100" height="100" as="geometry" />
        </mxCell>
        <mxCell id="oezpbbOGGenALwVOjRUv-11" style="edgeStyle=orthogonalEdgeStyle;rounded=0;orthogonalLoop=1;jettySize=auto;html=1;entryX=0;entryY=0.5;entryDx=0;entryDy=0;exitX=0.5;exitY=1;exitDx=0;exitDy=0;" parent="1" source="6GOM7Ha0-x-E4gUQbuxZ-2" target="Ol5AXbQPxSO3nmrqW-n--1" edge="1">
          <mxGeometry relative="1" as="geometry">
            <Array as="points">
              <mxPoint x="320" y="1300" />
              <mxPoint x="-60" y="1300" />
              <mxPoint x="-60" y="950" />
            </Array>
          </mxGeometry>
        </mxCell>
        <mxCell id="6GOM7Ha0-x-E4gUQbuxZ-2" value="" style="verticalLabelPosition=bottom;verticalAlign=top;html=1;shape=process;whiteSpace=wrap;rounded=1;size=0.14;arcSize=6;" parent="1" vertex="1">
          <mxGeometry x="270" y="1180" width="100" height="60" as="geometry" />
        </mxCell>
        <mxCell id="6GOM7Ha0-x-E4gUQbuxZ-4" value="Tampilkan data" style="text;html=1;align=center;verticalAlign=middle;resizable=0;points=[];autosize=1;strokeColor=none;fillColor=none;" parent="1" vertex="1">
          <mxGeometry x="270" y="1195" width="100" height="30" as="geometry" />
        </mxCell>
        <mxCell id="xKdxJ4ueiBNfUoAXIZeR-2" value="" style="edgeStyle=orthogonalEdgeStyle;rounded=0;orthogonalLoop=1;jettySize=auto;html=1;" parent="1" source="6GOM7Ha0-x-E4gUQbuxZ-5" target="xKdxJ4ueiBNfUoAXIZeR-1" edge="1">
          <mxGeometry relative="1" as="geometry" />
        </mxCell>
        <mxCell id="hh0KTQaMWghcd9gIspm0-18" value="True" style="edgeLabel;html=1;align=center;verticalAlign=middle;resizable=0;points=[];" parent="xKdxJ4ueiBNfUoAXIZeR-2" vertex="1" connectable="0">
          <mxGeometry x="0.0148" y="-1" relative="1" as="geometry">
            <mxPoint as="offset" />
          </mxGeometry>
        </mxCell>
        <mxCell id="oezpbbOGGenALwVOjRUv-2" value="" style="edgeStyle=orthogonalEdgeStyle;rounded=0;orthogonalLoop=1;jettySize=auto;html=1;" parent="1" source="6GOM7Ha0-x-E4gUQbuxZ-5" target="oezpbbOGGenALwVOjRUv-1" edge="1">
          <mxGeometry relative="1" as="geometry" />
        </mxCell>
        <mxCell id="hh0KTQaMWghcd9gIspm0-13" value="False" style="edgeLabel;html=1;align=center;verticalAlign=middle;resizable=0;points=[];" parent="oezpbbOGGenALwVOjRUv-2" vertex="1" connectable="0">
          <mxGeometry x="0.2348" y="2" relative="1" as="geometry">
            <mxPoint x="-10" y="2" as="offset" />
          </mxGeometry>
        </mxCell>
        <mxCell id="6GOM7Ha0-x-E4gUQbuxZ-5" value="Ubah data" style="strokeWidth=2;html=1;shape=mxgraph.flowchart.decision;whiteSpace=wrap;" parent="1" vertex="1">
          <mxGeometry x="450" y="1020" width="100" height="100" as="geometry" />
        </mxCell>
        <mxCell id="oezpbbOGGenALwVOjRUv-12" style="edgeStyle=orthogonalEdgeStyle;rounded=0;orthogonalLoop=1;jettySize=auto;html=1;entryX=0;entryY=0.5;entryDx=0;entryDy=0;" parent="1" source="xKdxJ4ueiBNfUoAXIZeR-1" target="Ol5AXbQPxSO3nmrqW-n--1" edge="1">
          <mxGeometry relative="1" as="geometry">
            <Array as="points">
              <mxPoint x="500" y="1330" />
              <mxPoint x="-120" y="1330" />
              <mxPoint x="-120" y="950" />
            </Array>
          </mxGeometry>
        </mxCell>
        <mxCell id="xKdxJ4ueiBNfUoAXIZeR-1" value="" style="verticalLabelPosition=bottom;verticalAlign=top;html=1;shape=process;whiteSpace=wrap;rounded=1;size=0.14;arcSize=6;" parent="1" vertex="1">
          <mxGeometry x="450" y="1180" width="100" height="60" as="geometry" />
        </mxCell>
        <mxCell id="xKdxJ4ueiBNfUoAXIZeR-3" value="Ubah data" style="text;html=1;align=center;verticalAlign=middle;resizable=0;points=[];autosize=1;strokeColor=none;fillColor=none;" parent="1" vertex="1">
          <mxGeometry x="460" y="1195" width="80" height="30" as="geometry" />
        </mxCell>
        <mxCell id="oezpbbOGGenALwVOjRUv-4" value="" style="edgeStyle=orthogonalEdgeStyle;rounded=0;orthogonalLoop=1;jettySize=auto;html=1;" parent="1" source="oezpbbOGGenALwVOjRUv-1" target="oezpbbOGGenALwVOjRUv-3" edge="1">
          <mxGeometry relative="1" as="geometry" />
        </mxCell>
        <mxCell id="hh0KTQaMWghcd9gIspm0-17" value="True" style="edgeLabel;html=1;align=center;verticalAlign=middle;resizable=0;points=[];" parent="oezpbbOGGenALwVOjRUv-4" vertex="1" connectable="0">
          <mxGeometry x="-0.1333" y="1" relative="1" as="geometry">
            <mxPoint as="offset" />
          </mxGeometry>
        </mxCell>
        <mxCell id="hh0KTQaMWghcd9gIspm0-5" value="" style="edgeStyle=orthogonalEdgeStyle;rounded=0;orthogonalLoop=1;jettySize=auto;html=1;" parent="1" source="oezpbbOGGenALwVOjRUv-1" target="hh0KTQaMWghcd9gIspm0-4" edge="1">
          <mxGeometry relative="1" as="geometry" />
        </mxCell>
        <mxCell id="hh0KTQaMWghcd9gIspm0-14" value="False" style="edgeLabel;html=1;align=center;verticalAlign=middle;resizable=0;points=[];" parent="hh0KTQaMWghcd9gIspm0-5" vertex="1" connectable="0">
          <mxGeometry x="-0.0913" y="1" relative="1" as="geometry">
            <mxPoint as="offset" />
          </mxGeometry>
        </mxCell>
        <mxCell id="oezpbbOGGenALwVOjRUv-1" value="Hapus data" style="strokeWidth=2;html=1;shape=mxgraph.flowchart.decision;whiteSpace=wrap;" parent="1" vertex="1">
          <mxGeometry x="630" y="1020" width="100" height="100" as="geometry" />
        </mxCell>
        <mxCell id="oezpbbOGGenALwVOjRUv-3" value="" style="verticalLabelPosition=bottom;verticalAlign=top;html=1;shape=process;whiteSpace=wrap;rounded=1;size=0.14;arcSize=6;" parent="1" vertex="1">
          <mxGeometry x="620" y="1180" width="120" height="60" as="geometry" />
        </mxCell>
        <mxCell id="oezpbbOGGenALwVOjRUv-5" value="Hapus data" style="text;html=1;align=center;verticalAlign=middle;resizable=0;points=[];autosize=1;strokeColor=none;fillColor=none;" parent="1" vertex="1">
          <mxGeometry x="640" y="1194" width="80" height="30" as="geometry" />
        </mxCell>
        <mxCell id="oezpbbOGGenALwVOjRUv-9" style="edgeStyle=orthogonalEdgeStyle;rounded=0;orthogonalLoop=1;jettySize=auto;html=1;entryX=0;entryY=0.5;entryDx=0;entryDy=0;exitX=0.5;exitY=1;exitDx=0;exitDy=0;exitPerimeter=0;" parent="1" source="oezpbbOGGenALwVOjRUv-7" target="IL1phmKc3OUUYU9UXJBj-2" edge="1">
          <mxGeometry relative="1" as="geometry">
            <Array as="points">
              <mxPoint x="1040" y="1460" />
              <mxPoint x="-1040" y="1460" />
              <mxPoint x="-1040" y="440" />
            </Array>
          </mxGeometry>
        </mxCell>
        <mxCell id="hh0KTQaMWghcd9gIspm0-22" value="True" style="edgeLabel;html=1;align=center;verticalAlign=middle;resizable=0;points=[];" parent="oezpbbOGGenALwVOjRUv-9" vertex="1" connectable="0">
          <mxGeometry x="-0.9731" y="-4" relative="1" as="geometry">
            <mxPoint y="-1" as="offset" />
          </mxGeometry>
        </mxCell>
        <mxCell id="oezpbbOGGenALwVOjRUv-7" value="Logout" style="strokeWidth=2;html=1;shape=mxgraph.flowchart.decision;whiteSpace=wrap;" parent="1" vertex="1">
          <mxGeometry x="990" y="1020" width="100" height="100" as="geometry" />
        </mxCell>
        <mxCell id="oezpbbOGGenALwVOjRUv-13" style="edgeStyle=orthogonalEdgeStyle;rounded=0;orthogonalLoop=1;jettySize=auto;html=1;" parent="1" source="oezpbbOGGenALwVOjRUv-5" edge="1">
          <mxGeometry relative="1" as="geometry">
            <mxPoint x="90" y="950" as="targetPoint" />
            <Array as="points">
              <mxPoint x="680" y="1360" />
              <mxPoint x="-170" y="1360" />
              <mxPoint x="-170" y="950" />
            </Array>
          </mxGeometry>
        </mxCell>
        <mxCell id="9OENz1F9VdTtjFjYxFF2-2" value="" style="edgeStyle=orthogonalEdgeStyle;rounded=0;orthogonalLoop=1;jettySize=auto;html=1;" parent="1" source="SnPUfPCR4jyvn7PE34Hb-1" target="9OENz1F9VdTtjFjYxFF2-1" edge="1">
          <mxGeometry relative="1" as="geometry" />
        </mxCell>
        <mxCell id="SnPUfPCR4jyvn7PE34Hb-1" value="Pilihan pengguna" style="shape=parallelogram;html=1;strokeWidth=2;perimeter=parallelogramPerimeter;whiteSpace=wrap;rounded=1;arcSize=12;size=0.23;" parent="1" vertex="1">
          <mxGeometry x="-487" y="950" width="125" height="60" as="geometry" />
        </mxCell>
        <mxCell id="SnPUfPCR4jyvn7PE34Hb-4" value="" style="edgeStyle=none;orthogonalLoop=1;jettySize=auto;html=1;rounded=0;" parent="1" edge="1">
          <mxGeometry width="100" relative="1" as="geometry">
            <mxPoint x="-487" y="960" as="sourcePoint" />
            <mxPoint x="-437" y="960" as="targetPoint" />
            <Array as="points" />
          </mxGeometry>
        </mxCell>
        <mxCell id="9OENz1F9VdTtjFjYxFF2-4" value="" style="edgeStyle=orthogonalEdgeStyle;rounded=0;orthogonalLoop=1;jettySize=auto;html=1;" parent="1" source="9OENz1F9VdTtjFjYxFF2-1" target="9OENz1F9VdTtjFjYxFF2-3" edge="1">
          <mxGeometry relative="1" as="geometry" />
        </mxCell>
        <mxCell id="7CoMZ6yRX7SlCiv-Ta6n-1" value="False" style="edgeLabel;html=1;align=center;verticalAlign=middle;resizable=0;points=[];" parent="9OENz1F9VdTtjFjYxFF2-4" vertex="1" connectable="0">
          <mxGeometry x="-0.0954" y="2" relative="1" as="geometry">
            <mxPoint x="1" as="offset" />
          </mxGeometry>
        </mxCell>
        <mxCell id="8fDBhv9t8lkOErtbsiVY-2" value="" style="edgeStyle=orthogonalEdgeStyle;rounded=0;orthogonalLoop=1;jettySize=auto;html=1;" parent="1" source="9OENz1F9VdTtjFjYxFF2-1" target="8fDBhv9t8lkOErtbsiVY-1" edge="1">
          <mxGeometry relative="1" as="geometry" />
        </mxCell>
        <mxCell id="8fDBhv9t8lkOErtbsiVY-3" value="True" style="edgeLabel;html=1;align=center;verticalAlign=middle;resizable=0;points=[];" parent="8fDBhv9t8lkOErtbsiVY-2" vertex="1" connectable="0">
          <mxGeometry x="-0.165" y="3" relative="1" as="geometry">
            <mxPoint x="-3" y="5" as="offset" />
          </mxGeometry>
        </mxCell>
        <mxCell id="9OENz1F9VdTtjFjYxFF2-1" value="Tambah data" style="strokeWidth=2;html=1;shape=mxgraph.flowchart.decision;whiteSpace=wrap;" parent="1" vertex="1">
          <mxGeometry x="-474.5" y="1090" width="100" height="100" as="geometry" />
        </mxCell>
        <mxCell id="7CoMZ6yRX7SlCiv-Ta6n-3" value="" style="edgeStyle=orthogonalEdgeStyle;rounded=0;orthogonalLoop=1;jettySize=auto;html=1;" parent="1" source="9OENz1F9VdTtjFjYxFF2-3" target="7CoMZ6yRX7SlCiv-Ta6n-2" edge="1">
          <mxGeometry relative="1" as="geometry" />
        </mxCell>
        <mxCell id="hh0KTQaMWghcd9gIspm0-20" value="True" style="edgeLabel;html=1;align=center;verticalAlign=middle;resizable=0;points=[];" parent="7CoMZ6yRX7SlCiv-Ta6n-3" vertex="1" connectable="0">
          <mxGeometry x="0.0944" y="-1" relative="1" as="geometry">
            <mxPoint as="offset" />
          </mxGeometry>
        </mxCell>
        <mxCell id="7CoMZ6yRX7SlCiv-Ta6n-6" value="" style="edgeStyle=orthogonalEdgeStyle;rounded=0;orthogonalLoop=1;jettySize=auto;html=1;" parent="1" source="9OENz1F9VdTtjFjYxFF2-3" target="7CoMZ6yRX7SlCiv-Ta6n-5" edge="1">
          <mxGeometry relative="1" as="geometry" />
        </mxCell>
        <mxCell id="7CoMZ6yRX7SlCiv-Ta6n-8" value="False" style="edgeLabel;html=1;align=center;verticalAlign=middle;resizable=0;points=[];" parent="7CoMZ6yRX7SlCiv-Ta6n-6" vertex="1" connectable="0">
          <mxGeometry x="-0.025" relative="1" as="geometry">
            <mxPoint as="offset" />
          </mxGeometry>
        </mxCell>
        <mxCell id="9OENz1F9VdTtjFjYxFF2-3" value="Tampilkan data" style="strokeWidth=2;html=1;shape=mxgraph.flowchart.decision;whiteSpace=wrap;" parent="1" vertex="1">
          <mxGeometry x="-690" y="1090" width="95" height="100" as="geometry" />
        </mxCell>
        <mxCell id="8fDBhv9t8lkOErtbsiVY-1" value="" style="verticalLabelPosition=bottom;verticalAlign=top;html=1;shape=process;whiteSpace=wrap;rounded=1;size=0.14;arcSize=6;" parent="1" vertex="1">
          <mxGeometry x="-474.5" y="1270" width="100" height="60" as="geometry" />
        </mxCell>
        <mxCell id="q5FtdKPk_OZ0dVfno66y-2" style="edgeStyle=orthogonalEdgeStyle;rounded=0;orthogonalLoop=1;jettySize=auto;html=1;exitX=0.5;exitY=1;exitDx=0;exitDy=0;entryX=1;entryY=0.5;entryDx=0;entryDy=0;" parent="1" source="8fDBhv9t8lkOErtbsiVY-1" target="SnPUfPCR4jyvn7PE34Hb-1" edge="1">
          <mxGeometry relative="1" as="geometry">
            <mxPoint x="-380.00000000000045" y="970" as="targetPoint" />
            <Array as="points">
              <mxPoint x="-425" y="1380" />
              <mxPoint x="-290" y="1380" />
              <mxPoint x="-290" y="980" />
            </Array>
          </mxGeometry>
        </mxCell>
        <mxCell id="8fDBhv9t8lkOErtbsiVY-4" value="Tambah data" style="text;html=1;align=center;verticalAlign=middle;resizable=0;points=[];autosize=1;strokeColor=none;fillColor=none;" parent="1" vertex="1">
          <mxGeometry x="-469.5" y="1285" width="90" height="30" as="geometry" />
        </mxCell>
        <mxCell id="7CoMZ6yRX7SlCiv-Ta6n-2" value="" style="verticalLabelPosition=bottom;verticalAlign=top;html=1;shape=process;whiteSpace=wrap;rounded=1;size=0.14;arcSize=6;" parent="1" vertex="1">
          <mxGeometry x="-692.5" y="1270" width="100" height="60" as="geometry" />
        </mxCell>
        <mxCell id="q5FtdKPk_OZ0dVfno66y-1" style="edgeStyle=orthogonalEdgeStyle;rounded=0;orthogonalLoop=1;jettySize=auto;html=1;exitX=0.5;exitY=1;exitDx=0;exitDy=0;entryX=1;entryY=0.5;entryDx=0;entryDy=0;" parent="1" source="7CoMZ6yRX7SlCiv-Ta6n-2" target="SnPUfPCR4jyvn7PE34Hb-1" edge="1">
          <mxGeometry relative="1" as="geometry">
            <mxPoint x="-290" y="880" as="targetPoint" />
            <Array as="points">
              <mxPoint x="-642" y="1420" />
              <mxPoint x="-260" y="1420" />
              <mxPoint x="-260" y="980" />
            </Array>
          </mxGeometry>
        </mxCell>
        <mxCell id="7CoMZ6yRX7SlCiv-Ta6n-4" value="Tampilkan data" style="text;html=1;align=center;verticalAlign=middle;resizable=0;points=[];autosize=1;strokeColor=none;fillColor=none;" parent="1" vertex="1">
          <mxGeometry x="-692.5" y="1285" width="100" height="30" as="geometry" />
        </mxCell>
        <mxCell id="7CoMZ6yRX7SlCiv-Ta6n-7" style="edgeStyle=orthogonalEdgeStyle;rounded=0;orthogonalLoop=1;jettySize=auto;html=1;exitX=0.5;exitY=1;exitDx=0;exitDy=0;exitPerimeter=0;" parent="1" source="7CoMZ6yRX7SlCiv-Ta6n-5" edge="1">
          <mxGeometry relative="1" as="geometry">
            <mxPoint x="382.9090465198864" y="440" as="targetPoint" />
            <Array as="points">
              <mxPoint x="-817" y="1250" />
              <mxPoint x="-930" y="1250" />
              <mxPoint x="-930" y="440" />
            </Array>
          </mxGeometry>
        </mxCell>
        <mxCell id="hh0KTQaMWghcd9gIspm0-21" value="True" style="edgeLabel;html=1;align=center;verticalAlign=middle;resizable=0;points=[];" parent="7CoMZ6yRX7SlCiv-Ta6n-7" vertex="1" connectable="0">
          <mxGeometry x="-0.9815" y="-3" relative="1" as="geometry">
            <mxPoint x="3" y="13" as="offset" />
          </mxGeometry>
        </mxCell>
        <mxCell id="7CoMZ6yRX7SlCiv-Ta6n-5" value="Logout" style="strokeWidth=2;html=1;shape=mxgraph.flowchart.decision;whiteSpace=wrap;" parent="1" vertex="1">
          <mxGeometry x="-865" y="1090" width="95" height="100" as="geometry" />
        </mxCell>
        <mxCell id="CmBOQebBg6JPJXjIbVgN-1" value="END" style="strokeWidth=2;html=1;shape=mxgraph.flowchart.start_1;whiteSpace=wrap;" parent="1" vertex="1">
          <mxGeometry x="370" y="1550" width="100" height="60" as="geometry" />
        </mxCell>
        <mxCell id="CmBOQebBg6JPJXjIbVgN-3" style="edgeStyle=orthogonalEdgeStyle;rounded=0;orthogonalLoop=1;jettySize=auto;html=1;entryX=0.5;entryY=0;entryDx=0;entryDy=0;entryPerimeter=0;" parent="1" source="4S5R090-bwrtNlhZvarS-12" target="CmBOQebBg6JPJXjIbVgN-1" edge="1">
          <mxGeometry relative="1" as="geometry">
            <Array as="points">
              <mxPoint x="1250" y="830" />
              <mxPoint x="1250" y="1520" />
              <mxPoint x="420" y="1520" />
            </Array>
          </mxGeometry>
        </mxCell>
        <mxCell id="CmBOQebBg6JPJXjIbVgN-4" value="True" style="edgeLabel;html=1;align=center;verticalAlign=middle;resizable=0;points=[];" parent="CmBOQebBg6JPJXjIbVgN-3" vertex="1" connectable="0">
          <mxGeometry x="-0.7961" y="-2" relative="1" as="geometry">
            <mxPoint x="-126" y="-2" as="offset" />
          </mxGeometry>
        </mxCell>
        <mxCell id="hh0KTQaMWghcd9gIspm0-6" value="" style="edgeStyle=orthogonalEdgeStyle;rounded=0;orthogonalLoop=1;jettySize=auto;html=1;" parent="1" source="hh0KTQaMWghcd9gIspm0-4" target="oezpbbOGGenALwVOjRUv-7" edge="1">
          <mxGeometry relative="1" as="geometry" />
        </mxCell>
        <mxCell id="hh0KTQaMWghcd9gIspm0-15" value="False" style="edgeLabel;html=1;align=center;verticalAlign=middle;resizable=0;points=[];" parent="hh0KTQaMWghcd9gIspm0-6" vertex="1" connectable="0">
          <mxGeometry x="-0.2447" relative="1" as="geometry">
            <mxPoint x="5" as="offset" />
          </mxGeometry>
        </mxCell>
        <mxCell id="hh0KTQaMWghcd9gIspm0-8" value="" style="edgeStyle=orthogonalEdgeStyle;rounded=0;orthogonalLoop=1;jettySize=auto;html=1;" parent="1" source="hh0KTQaMWghcd9gIspm0-4" target="hh0KTQaMWghcd9gIspm0-7" edge="1">
          <mxGeometry relative="1" as="geometry" />
        </mxCell>
        <mxCell id="hh0KTQaMWghcd9gIspm0-16" value="True" style="edgeLabel;html=1;align=center;verticalAlign=middle;resizable=0;points=[];" parent="hh0KTQaMWghcd9gIspm0-8" vertex="1" connectable="0">
          <mxGeometry x="0.1259" y="2" relative="1" as="geometry">
            <mxPoint as="offset" />
          </mxGeometry>
        </mxCell>
        <mxCell id="hh0KTQaMWghcd9gIspm0-4" value="Total jadwal" style="strokeWidth=2;html=1;shape=mxgraph.flowchart.decision;whiteSpace=wrap;" parent="1" vertex="1">
          <mxGeometry x="810" y="1020" width="100" height="100" as="geometry" />
        </mxCell>
        <mxCell id="hh0KTQaMWghcd9gIspm0-11" style="edgeStyle=orthogonalEdgeStyle;rounded=0;orthogonalLoop=1;jettySize=auto;html=1;" parent="1" edge="1">
          <mxGeometry relative="1" as="geometry">
            <mxPoint x="860.090909090909" y="1244" as="sourcePoint" />
            <mxPoint x="90" y="950" as="targetPoint" />
            <Array as="points">
              <mxPoint x="860" y="1384" />
              <mxPoint x="-230" y="1384" />
              <mxPoint x="-230" y="950" />
            </Array>
          </mxGeometry>
        </mxCell>
        <mxCell id="hh0KTQaMWghcd9gIspm0-7" value="" style="verticalLabelPosition=bottom;verticalAlign=top;html=1;shape=process;whiteSpace=wrap;rounded=1;size=0.14;arcSize=6;" parent="1" vertex="1">
          <mxGeometry x="810" y="1180" width="100" height="60" as="geometry" />
        </mxCell>
        <mxCell id="hh0KTQaMWghcd9gIspm0-9" value="Total jadwal" style="text;html=1;align=center;verticalAlign=middle;resizable=0;points=[];autosize=1;strokeColor=none;fillColor=none;" parent="1" vertex="1">
          <mxGeometry x="815" y="1195" width="90" height="30" as="geometry" />
        </mxCell>
        <mxCell id="29CmAcHR3_0q53N1MXfq-1" value="" style="edgeStyle=none;orthogonalLoop=1;jettySize=auto;html=1;rounded=0;" edge="1" parent="1">
          <mxGeometry width="100" relative="1" as="geometry">
            <mxPoint x="360" y="420" as="sourcePoint" />
            <mxPoint x="410" y="420" as="targetPoint" />
            <Array as="points" />
          </mxGeometry>
        </mxCell>
      </root>
    </mxGraphModel>
  </diagram>
  <diagram id="ktEtNFoIpM2ly_aeJpQO" name="register">
    <mxGraphModel dx="1290" dy="621" grid="1" gridSize="10" guides="1" tooltips="1" connect="1" arrows="1" fold="1" page="1" pageScale="1" pageWidth="850" pageHeight="1100" math="0" shadow="0">
      <root>
        <mxCell id="0" />
        <mxCell id="1" parent="0" />
        <mxCell id="VKh4wYocVOfpkpVN81ZU-2" value="" style="edgeStyle=orthogonalEdgeStyle;rounded=0;orthogonalLoop=1;jettySize=auto;html=1;" edge="1" parent="1" source="HmQbHXPhvyVjyVEYvVR3-1" target="VKh4wYocVOfpkpVN81ZU-1">
          <mxGeometry relative="1" as="geometry" />
        </mxCell>
        <mxCell id="HmQbHXPhvyVjyVEYvVR3-1" value="REGISTER" style="strokeWidth=2;html=1;shape=mxgraph.flowchart.start_1;whiteSpace=wrap;" vertex="1" parent="1">
          <mxGeometry x="370" y="280" width="100" height="60" as="geometry" />
        </mxCell>
        <mxCell id="VKh4wYocVOfpkpVN81ZU-5" value="" style="edgeStyle=orthogonalEdgeStyle;rounded=0;orthogonalLoop=1;jettySize=auto;html=1;" edge="1" parent="1" source="VKh4wYocVOfpkpVN81ZU-1" target="VKh4wYocVOfpkpVN81ZU-4">
          <mxGeometry relative="1" as="geometry" />
        </mxCell>
        <mxCell id="VKh4wYocVOfpkpVN81ZU-1" value="Masukkan username dan password baru dan role" style="shape=parallelogram;html=1;strokeWidth=2;perimeter=parallelogramPerimeter;whiteSpace=wrap;rounded=1;arcSize=12;size=0.23;" vertex="1" parent="1">
          <mxGeometry x="330" y="400" width="180" height="80" as="geometry" />
        </mxCell>
        <mxCell id="VKh4wYocVOfpkpVN81ZU-3" value="" style="edgeStyle=none;orthogonalLoop=1;jettySize=auto;html=1;rounded=0;" edge="1" parent="1">
          <mxGeometry width="100" relative="1" as="geometry">
            <mxPoint x="340" y="410" as="sourcePoint" />
            <mxPoint x="390" y="410" as="targetPoint" />
            <Array as="points" />
          </mxGeometry>
        </mxCell>
        <mxCell id="VKh4wYocVOfpkpVN81ZU-4" value="END" style="strokeWidth=2;html=1;shape=mxgraph.flowchart.start_1;whiteSpace=wrap;" vertex="1" parent="1">
          <mxGeometry x="370" y="530" width="100" height="60" as="geometry" />
        </mxCell>
      </root>
    </mxGraphModel>
  </diagram>
  <diagram id="SmcD0gcLfTPNKzkXsCBj" name="Login">
    <mxGraphModel dx="1290" dy="621" grid="1" gridSize="10" guides="1" tooltips="1" connect="1" arrows="1" fold="1" page="1" pageScale="1" pageWidth="850" pageHeight="1100" math="0" shadow="0">
      <root>
        <mxCell id="0" />
        <mxCell id="1" parent="0" />
        <mxCell id="1CEzEv85pM4cY1ektA_q-3" value="" style="edgeStyle=orthogonalEdgeStyle;rounded=0;orthogonalLoop=1;jettySize=auto;html=1;" edge="1" parent="1" source="1CEzEv85pM4cY1ektA_q-1" target="1CEzEv85pM4cY1ektA_q-2">
          <mxGeometry relative="1" as="geometry" />
        </mxCell>
        <mxCell id="1CEzEv85pM4cY1ektA_q-1" value="Login" style="strokeWidth=2;html=1;shape=mxgraph.flowchart.start_1;whiteSpace=wrap;" vertex="1" parent="1">
          <mxGeometry x="370" y="290" width="100" height="60" as="geometry" />
        </mxCell>
        <mxCell id="Hw1NM17Ju1ICcXC9FIYj-3" value="" style="edgeStyle=orthogonalEdgeStyle;rounded=0;orthogonalLoop=1;jettySize=auto;html=1;" edge="1" parent="1" source="1CEzEv85pM4cY1ektA_q-2" target="Hw1NM17Ju1ICcXC9FIYj-2">
          <mxGeometry relative="1" as="geometry" />
        </mxCell>
        <mxCell id="1CEzEv85pM4cY1ektA_q-2" value="Masukkan username dan password" style="shape=parallelogram;html=1;strokeWidth=2;perimeter=parallelogramPerimeter;whiteSpace=wrap;rounded=1;arcSize=12;size=0.23;" vertex="1" parent="1">
          <mxGeometry x="335" y="410" width="170" height="60" as="geometry" />
        </mxCell>
        <mxCell id="Hw1NM17Ju1ICcXC9FIYj-1" value="" style="edgeStyle=none;orthogonalLoop=1;jettySize=auto;html=1;rounded=0;" edge="1" parent="1">
          <mxGeometry width="100" relative="1" as="geometry">
            <mxPoint x="340" y="420" as="sourcePoint" />
            <mxPoint x="390" y="420" as="targetPoint" />
            <Array as="points" />
          </mxGeometry>
        </mxCell>
        <mxCell id="Hw1NM17Ju1ICcXC9FIYj-2" value="END" style="strokeWidth=2;html=1;shape=mxgraph.flowchart.start_1;whiteSpace=wrap;" vertex="1" parent="1">
          <mxGeometry x="370" y="520" width="100" height="60" as="geometry" />
        </mxCell>
      </root>
    </mxGraphModel>
  </diagram>
  <diagram id="Ve1xwCIah6qCtvUL2dTP" name="Tambah data">
    <mxGraphModel dx="1290" dy="621" grid="1" gridSize="10" guides="1" tooltips="1" connect="1" arrows="1" fold="1" page="1" pageScale="1" pageWidth="850" pageHeight="1100" math="0" shadow="0">
      <root>
        <mxCell id="0" />
        <mxCell id="1" parent="0" />
        <mxCell id="lfGd7uaG8iDtJMwpoELQ-2" value="" style="edgeStyle=orthogonalEdgeStyle;rounded=0;orthogonalLoop=1;jettySize=auto;html=1;" parent="1" source="CyW5iDT0tgd5cnGe8wpG-1" target="lfGd7uaG8iDtJMwpoELQ-1" edge="1">
          <mxGeometry relative="1" as="geometry" />
        </mxCell>
        <mxCell id="CyW5iDT0tgd5cnGe8wpG-1" value="TAMBAH DATA" style="strokeWidth=2;html=1;shape=mxgraph.flowchart.start_1;whiteSpace=wrap;" parent="1" vertex="1">
          <mxGeometry x="375" y="230" width="100" height="60" as="geometry" />
        </mxCell>
        <mxCell id="lfGd7uaG8iDtJMwpoELQ-5" value="" style="edgeStyle=orthogonalEdgeStyle;rounded=0;orthogonalLoop=1;jettySize=auto;html=1;" parent="1" source="lfGd7uaG8iDtJMwpoELQ-1" target="lfGd7uaG8iDtJMwpoELQ-4" edge="1">
          <mxGeometry relative="1" as="geometry" />
        </mxCell>
        <mxCell id="lfGd7uaG8iDtJMwpoELQ-1" value="Hari, tanggal, tempat, PJ" style="shape=parallelogram;html=1;strokeWidth=2;perimeter=parallelogramPerimeter;whiteSpace=wrap;rounded=1;arcSize=12;size=0.23;" parent="1" vertex="1">
          <mxGeometry x="332" y="350" width="187" height="60" as="geometry" />
        </mxCell>
        <mxCell id="lfGd7uaG8iDtJMwpoELQ-3" value="" style="edgeStyle=none;orthogonalLoop=1;jettySize=auto;html=1;rounded=0;" parent="1" edge="1">
          <mxGeometry width="100" relative="1" as="geometry">
            <mxPoint x="340" y="360" as="sourcePoint" />
            <mxPoint x="390" y="360" as="targetPoint" />
            <Array as="points" />
          </mxGeometry>
        </mxCell>
        <mxCell id="lfGd7uaG8iDtJMwpoELQ-4" value="END" style="strokeWidth=2;html=1;shape=mxgraph.flowchart.start_1;whiteSpace=wrap;" parent="1" vertex="1">
          <mxGeometry x="375.5" y="470" width="100" height="60" as="geometry" />
        </mxCell>
      </root>
    </mxGraphModel>
  </diagram>
  <diagram id="zcjjUMGo4XmjWq1lLvlP" name="Tampilkan data">
    <mxGraphModel dx="1290" dy="621" grid="1" gridSize="10" guides="1" tooltips="1" connect="1" arrows="1" fold="1" page="1" pageScale="1" pageWidth="850" pageHeight="1100" math="0" shadow="0">
      <root>
        <mxCell id="0" />
        <mxCell id="1" parent="0" />
        <mxCell id="RxiLsdyW2qPww-RVlXlY-2" value="" style="edgeStyle=orthogonalEdgeStyle;rounded=0;orthogonalLoop=1;jettySize=auto;html=1;" parent="1" source="AV4A5-0mvUlRVT5-XlQ0-1" target="RxiLsdyW2qPww-RVlXlY-1" edge="1">
          <mxGeometry relative="1" as="geometry" />
        </mxCell>
        <mxCell id="AV4A5-0mvUlRVT5-XlQ0-1" value="TAMPILKAN DATA" style="strokeWidth=2;html=1;shape=mxgraph.flowchart.start_1;whiteSpace=wrap;" parent="1" vertex="1">
          <mxGeometry x="375" y="190" width="100" height="60" as="geometry" />
        </mxCell>
        <mxCell id="RxiLsdyW2qPww-RVlXlY-4" value="True" style="edgeStyle=orthogonalEdgeStyle;rounded=0;orthogonalLoop=1;jettySize=auto;html=1;entryX=0.9;entryY=0.5;entryDx=0;entryDy=0;entryPerimeter=0;" parent="1" target="RxiLsdyW2qPww-RVlXlY-5" edge="1">
          <mxGeometry relative="1" as="geometry">
            <mxPoint x="370" y="360" as="sourcePoint" />
            <mxPoint x="305" y="360" as="targetPoint" />
          </mxGeometry>
        </mxCell>
        <mxCell id="RxiLsdyW2qPww-RVlXlY-10" value="" style="edgeStyle=orthogonalEdgeStyle;rounded=0;orthogonalLoop=1;jettySize=auto;html=1;" parent="1" source="RxiLsdyW2qPww-RVlXlY-1" target="RxiLsdyW2qPww-RVlXlY-9" edge="1">
          <mxGeometry relative="1" as="geometry" />
        </mxCell>
        <mxCell id="RxiLsdyW2qPww-RVlXlY-15" value="False" style="edgeLabel;html=1;align=center;verticalAlign=middle;resizable=0;points=[];" parent="RxiLsdyW2qPww-RVlXlY-10" vertex="1" connectable="0">
          <mxGeometry x="-0.4809" y="-2" relative="1" as="geometry">
            <mxPoint x="2" y="14" as="offset" />
          </mxGeometry>
        </mxCell>
        <mxCell id="RxiLsdyW2qPww-RVlXlY-1" value="Jadwal sudah ada?" style="rhombus;whiteSpace=wrap;html=1;strokeWidth=2;" parent="1" vertex="1">
          <mxGeometry x="373" y="320" width="105" height="80" as="geometry" />
        </mxCell>
        <mxCell id="RxiLsdyW2qPww-RVlXlY-5" value="Tampilkan barang" style="shape=parallelogram;html=1;strokeWidth=2;perimeter=parallelogramPerimeter;whiteSpace=wrap;rounded=1;arcSize=12;size=0.23;" parent="1" vertex="1">
          <mxGeometry x="170" y="330" width="140" height="60" as="geometry" />
        </mxCell>
        <mxCell id="RxiLsdyW2qPww-RVlXlY-7" value="" style="edgeStyle=none;orthogonalLoop=1;jettySize=auto;html=1;rounded=0;" parent="1" edge="1">
          <mxGeometry width="100" relative="1" as="geometry">
            <mxPoint x="260" y="380" as="sourcePoint" />
            <mxPoint x="310" y="380" as="targetPoint" />
            <Array as="points" />
          </mxGeometry>
        </mxCell>
        <mxCell id="RxiLsdyW2qPww-RVlXlY-13" value="" style="edgeStyle=orthogonalEdgeStyle;rounded=0;orthogonalLoop=1;jettySize=auto;html=1;" parent="1" source="RxiLsdyW2qPww-RVlXlY-9" target="RxiLsdyW2qPww-RVlXlY-12" edge="1">
          <mxGeometry relative="1" as="geometry" />
        </mxCell>
        <mxCell id="RxiLsdyW2qPww-RVlXlY-9" value="Jadwal kosong" style="shape=parallelogram;html=1;strokeWidth=2;perimeter=parallelogramPerimeter;whiteSpace=wrap;rounded=1;arcSize=12;size=0.23;" parent="1" vertex="1">
          <mxGeometry x="367.75" y="460" width="115.5" height="60" as="geometry" />
        </mxCell>
        <mxCell id="RxiLsdyW2qPww-RVlXlY-11" value="" style="edgeStyle=none;orthogonalLoop=1;jettySize=auto;html=1;rounded=0;" parent="1" edge="1">
          <mxGeometry width="100" relative="1" as="geometry">
            <mxPoint x="428" y="510" as="sourcePoint" />
            <mxPoint x="478" y="510" as="targetPoint" />
            <Array as="points" />
          </mxGeometry>
        </mxCell>
        <mxCell id="RxiLsdyW2qPww-RVlXlY-12" value="END" style="strokeWidth=2;html=1;shape=mxgraph.flowchart.start_1;whiteSpace=wrap;" parent="1" vertex="1">
          <mxGeometry x="375.5" y="580" width="100" height="60" as="geometry" />
        </mxCell>
        <mxCell id="RxiLsdyW2qPww-RVlXlY-14" style="edgeStyle=orthogonalEdgeStyle;rounded=0;orthogonalLoop=1;jettySize=auto;html=1;entryX=0;entryY=0.5;entryDx=0;entryDy=0;entryPerimeter=0;" parent="1" source="RxiLsdyW2qPww-RVlXlY-5" target="RxiLsdyW2qPww-RVlXlY-12" edge="1">
          <mxGeometry relative="1" as="geometry">
            <Array as="points">
              <mxPoint x="240" y="610" />
            </Array>
          </mxGeometry>
        </mxCell>
      </root>
    </mxGraphModel>
  </diagram>
  <diagram id="-e2MeiSa3e7TOXQYvwZV" name="Ubah data">
    <mxGraphModel dx="1290" dy="621" grid="1" gridSize="10" guides="1" tooltips="1" connect="1" arrows="1" fold="1" page="1" pageScale="1" pageWidth="850" pageHeight="1100" math="0" shadow="0">
      <root>
        <mxCell id="0" />
        <mxCell id="1" parent="0" />
        <mxCell id="t8Nl5GWaIqjmBYRd_kGz-2" value="" style="edgeStyle=orthogonalEdgeStyle;rounded=0;orthogonalLoop=1;jettySize=auto;html=1;" parent="1" source="mlEAp6uzaiRlEna_cG3F-1" target="t8Nl5GWaIqjmBYRd_kGz-1" edge="1">
          <mxGeometry relative="1" as="geometry" />
        </mxCell>
        <mxCell id="mlEAp6uzaiRlEna_cG3F-1" value="UBAH DATA" style="strokeWidth=2;html=1;shape=mxgraph.flowchart.start_1;whiteSpace=wrap;" parent="1" vertex="1">
          <mxGeometry x="370" y="290" width="100" height="60" as="geometry" />
        </mxCell>
        <mxCell id="i9uuXgHVME6fjoArEQZ1-4" value="" style="edgeStyle=orthogonalEdgeStyle;rounded=0;orthogonalLoop=1;jettySize=auto;html=1;" parent="1" source="t8Nl5GWaIqjmBYRd_kGz-1" target="i9uuXgHVME6fjoArEQZ1-2" edge="1">
          <mxGeometry relative="1" as="geometry" />
        </mxCell>
        <mxCell id="t8Nl5GWaIqjmBYRd_kGz-1" value="Hari, tanggal, tempat, PJ yang baru" style="shape=parallelogram;html=1;strokeWidth=2;perimeter=parallelogramPerimeter;whiteSpace=wrap;rounded=1;arcSize=12;size=0.23;" parent="1" vertex="1">
          <mxGeometry x="330" y="400" width="180" height="60" as="geometry" />
        </mxCell>
        <mxCell id="i9uuXgHVME6fjoArEQZ1-1" value="" style="edgeStyle=none;orthogonalLoop=1;jettySize=auto;html=1;rounded=0;" parent="1" edge="1">
          <mxGeometry width="100" relative="1" as="geometry">
            <mxPoint x="340" y="410" as="sourcePoint" />
            <mxPoint x="390" y="410" as="targetPoint" />
            <Array as="points" />
          </mxGeometry>
        </mxCell>
        <mxCell id="i9uuXgHVME6fjoArEQZ1-2" value="END" style="strokeWidth=2;html=1;shape=mxgraph.flowchart.start_1;whiteSpace=wrap;" parent="1" vertex="1">
          <mxGeometry x="370" y="520" width="100" height="60" as="geometry" />
        </mxCell>
      </root>
    </mxGraphModel>
  </diagram>
  <diagram id="HjnDSSjR5htk9S_HEiyh" name="Hapus data">
    <mxGraphModel dx="1290" dy="621" grid="1" gridSize="10" guides="1" tooltips="1" connect="1" arrows="1" fold="1" page="1" pageScale="1" pageWidth="850" pageHeight="1100" math="0" shadow="0">
      <root>
        <mxCell id="0" />
        <mxCell id="1" parent="0" />
        <mxCell id="5n3bj28uo9v6QkmHm-lE-3" value="" style="edgeStyle=orthogonalEdgeStyle;rounded=0;orthogonalLoop=1;jettySize=auto;html=1;" parent="1" source="5n3bj28uo9v6QkmHm-lE-1" target="5n3bj28uo9v6QkmHm-lE-2" edge="1">
          <mxGeometry relative="1" as="geometry" />
        </mxCell>
        <mxCell id="5n3bj28uo9v6QkmHm-lE-1" value="HAPUS DATA" style="strokeWidth=2;html=1;shape=mxgraph.flowchart.start_1;whiteSpace=wrap;" parent="1" vertex="1">
          <mxGeometry x="370" y="90" width="100" height="60" as="geometry" />
        </mxCell>
        <mxCell id="2Ay-8aEubCdplFPLaJqz-2" value="" style="edgeStyle=orthogonalEdgeStyle;rounded=0;orthogonalLoop=1;jettySize=auto;html=1;" parent="1" source="5n3bj28uo9v6QkmHm-lE-2" target="2Ay-8aEubCdplFPLaJqz-1" edge="1">
          <mxGeometry relative="1" as="geometry" />
        </mxCell>
        <mxCell id="5n3bj28uo9v6QkmHm-lE-2" value="Hari yang ingin dihapus" style="shape=parallelogram;html=1;strokeWidth=2;perimeter=parallelogramPerimeter;whiteSpace=wrap;rounded=1;arcSize=12;size=0.23;" parent="1" vertex="1">
          <mxGeometry x="320" y="200" width="200" height="60" as="geometry" />
        </mxCell>
        <mxCell id="5n3bj28uo9v6QkmHm-lE-4" value="" style="edgeStyle=none;orthogonalLoop=1;jettySize=auto;html=1;rounded=0;" parent="1" edge="1">
          <mxGeometry width="100" relative="1" as="geometry">
            <mxPoint x="330" y="210" as="sourcePoint" />
            <mxPoint x="380" y="210" as="targetPoint" />
            <Array as="points" />
          </mxGeometry>
        </mxCell>
        <mxCell id="2Ay-8aEubCdplFPLaJqz-1" value="END" style="strokeWidth=2;html=1;shape=mxgraph.flowchart.start_1;whiteSpace=wrap;" parent="1" vertex="1">
          <mxGeometry x="370" y="320" width="100" height="60" as="geometry" />
        </mxCell>
      </root>
    </mxGraphModel>
  </diagram>
  <diagram id="8_9V-PjX-_5vrmjQQzyn" name="Total jadwal">
    <mxGraphModel dx="1290" dy="621" grid="1" gridSize="10" guides="1" tooltips="1" connect="1" arrows="1" fold="1" page="1" pageScale="1" pageWidth="850" pageHeight="1100" math="0" shadow="0">
      <root>
        <mxCell id="0" />
        <mxCell id="1" parent="0" />
        <mxCell id="LBNIY_fnMTL2yEuIgYdF-4" value="" style="edgeStyle=orthogonalEdgeStyle;rounded=0;orthogonalLoop=1;jettySize=auto;html=1;" edge="1" parent="1" source="LBNIY_fnMTL2yEuIgYdF-1" target="LBNIY_fnMTL2yEuIgYdF-3">
          <mxGeometry relative="1" as="geometry" />
        </mxCell>
        <mxCell id="LBNIY_fnMTL2yEuIgYdF-1" value="TOTAL JADWAL" style="strokeWidth=2;html=1;shape=mxgraph.flowchart.start_1;whiteSpace=wrap;" vertex="1" parent="1">
          <mxGeometry x="370" y="280" width="100" height="60" as="geometry" />
        </mxCell>
        <mxCell id="LBNIY_fnMTL2yEuIgYdF-8" value="" style="edgeStyle=orthogonalEdgeStyle;rounded=0;orthogonalLoop=1;jettySize=auto;html=1;" edge="1" parent="1" source="LBNIY_fnMTL2yEuIgYdF-3" target="LBNIY_fnMTL2yEuIgYdF-7">
          <mxGeometry relative="1" as="geometry" />
        </mxCell>
        <mxCell id="LBNIY_fnMTL2yEuIgYdF-3" value="Total jadwal" style="shape=parallelogram;html=1;strokeWidth=2;perimeter=parallelogramPerimeter;whiteSpace=wrap;rounded=1;arcSize=12;size=0.23;" vertex="1" parent="1">
          <mxGeometry x="370" y="390" width="100" height="60" as="geometry" />
        </mxCell>
        <mxCell id="LBNIY_fnMTL2yEuIgYdF-5" value="&lt;div&gt;&lt;br&gt;&lt;/div&gt;&lt;div&gt;&lt;br&gt;&lt;/div&gt;" style="text;html=1;align=center;verticalAlign=middle;resizable=0;points=[];autosize=1;strokeColor=none;fillColor=none;" vertex="1" parent="1">
          <mxGeometry x="490" y="463" width="20" height="40" as="geometry" />
        </mxCell>
        <mxCell id="LBNIY_fnMTL2yEuIgYdF-6" value="" style="edgeStyle=none;orthogonalLoop=1;jettySize=auto;html=1;rounded=0;" edge="1" parent="1">
          <mxGeometry width="100" relative="1" as="geometry">
            <mxPoint x="425" y="440" as="sourcePoint" />
            <mxPoint x="475" y="440" as="targetPoint" />
            <Array as="points" />
          </mxGeometry>
        </mxCell>
        <mxCell id="LBNIY_fnMTL2yEuIgYdF-7" value="END" style="strokeWidth=2;html=1;shape=mxgraph.flowchart.start_1;whiteSpace=wrap;" vertex="1" parent="1">
          <mxGeometry x="370" y="510" width="100" height="60" as="geometry" />
        </mxCell>
      </root>
    </mxGraphModel>
  </diagram>
</mxfile>
